<?xml version="1.0" standalone="no"?>
<!DOCTYPE svg PUBLIC "-//W3C//DTD SVG 20010904//EN"
 "http://www.w3.org/TR/2001/REC-SVG-20010904/DTD/svg10.dtd">
<svg version="1.0" xmlns="http://www.w3.org/2000/svg"
 width="500.000000pt" height="500.000000pt" viewBox="0 0 500.000000 500.000000"
 preserveAspectRatio="xMidYMid meet">
<metadata>
Created by potrace 1.14, written by Peter Selinger 2001-2017
</metadata>
<g transform="translate(0.000000,500.000000) scale(0.100000,-0.100000)"
fill="#000000" stroke="none">
<path d="M2427 3854 c-1 -1 -36 -5 -77 -9 -73 -7 -84 -8 -145 -21 -82 -16
-210 -61 -300 -105 -104 -50 -257 -154 -312 -211 -17 -18 -55 -58 -85 -89 -45
-47 -106 -115 -136 -154 -57 -71 -185 -396 -207 -525 -16 -87 -21 -239 -11
-330 4 -36 9 -83 11 -105 2 -22 7 -51 10 -65 4 -14 10 -41 15 -60 33 -139 85
-263 157 -368 24 -35 43 -66 43 -70 0 -4 17 -26 38 -49 20 -23 46 -54 57 -70
25 -34 89 -97 135 -132 19 -14 37 -28 40 -31 19 -19 130 -87 211 -129 194
-100 377 -141 604 -136 197 4 277 17 425 71 74 26 216 91 255 116 239 154 415
342 514 553 27 56 88 229 96 271 2 10 4 20 5 22 4 3 5 11 19 92 25 140 12 476
-20 516 -5 6 -6 13 -3 17 9 9 -53 182 -96 267 -66 134 -134 227 -258 354 -66
68 -202 176 -221 176 -5 0 -11 4 -13 8 -5 14 -189 100 -268 125 -116 37 -171
50 -270 63 -45 5 -209 12 -213 8z"/>
</g>
</svg>
